<?xml version="1.0" encoding="iso-8859-1"?>
<!-- Uploaded to: SVG Repo, www.svgrepo.com, Generator: SVG Repo Mixer Tools -->
<svg version="1.1" id="Layer_1" xmlns="http://www.w3.org/2000/svg" xmlns:xlink="http://www.w3.org/1999/xlink" 
	 viewBox="0 0 489.997 489.997" xml:space="preserve">
<g>
	<g id="XMLID_49_">
		<rect y="222.03" style="fill:#CA9E67;" width="489.997" height="267.967"/>
	</g>
	<g id="XMLID_151_">
		<polygon style="fill:#936037;" points="0,474.959 306.248,405.779 0,349.871 		"/>
	</g>
	<g id="XMLID_149_">
		<polygon style="fill:#683C11;" points="489.997,489.997 489.997,359.992 0,474.198 0,489.997 		"/>
	</g>
	<g id="XMLID_48_">
		<rect style="fill:#F9B233;" width="489.997" height="219.478"/>
	</g>
	<g id="XMLID_90_">
		<rect y="160.78" style="fill:#F39200;" width="489.997" height="58.697"/>
	</g>
	<g id="XMLID_89_">
		<rect y="206.717" style="fill:#E94E1B;" width="489.997" height="12.76"/>
	</g>
	<g id="XMLID_92_">
		<polygon style="fill:#B84D29;" points="61.25,222.03 30.625,222.03 107.187,145.468 		"/>
	</g>
	<g id="XMLID_91_">
		<polygon style="fill:#F8CC88;" points="61.25,222.03 103.359,141.64 183.749,222.03 		"/>
	</g>
	<g id="XMLID_61_">
		<polygon style="fill:#1D1D1B;" points="178.335,227.443 103.359,152.467 28.382,227.443 17.555,216.616 103.359,130.812 
			189.162,216.616 		"/>
	</g>
	<g id="XMLID_64_">
		<polyline style="fill:#B84D29;" points="107.187,222.03 225.858,95.702 352.185,222.03 		"/>
	</g>
	<g id="XMLID_65_">
		<polygon style="fill:#F8CC88;" points="225.858,95.702 183.749,191.405 168.436,183.749 145.468,222.03 352.185,222.03 		"/>
	</g>
	<g id="XMLID_62_">
		<polygon style="fill:#1D1D1B;" points="346.772,227.443 225.858,106.53 104.944,227.443 94.117,216.616 225.858,84.875 
			357.599,216.616 		"/>
	</g>
	<g id="XMLID_47_">
		<polygon style="fill:#B84D29;" points="298.592,222.03 359.841,153.124 336.873,222.03 		"/>
	</g>
	<g id="XMLID_93_">
		<polygon style="fill:#F8CC88;" points="359.841,153.124 336.873,222.03 428.747,222.03 		"/>
	</g>
	<path style="fill:#1D1D1B;" d="M431.918,214.374l-72.077-72.077l-72.077,72.077H0v15.312h489.997v-15.312H431.918z
		 M359.841,163.951l50.422,50.422H309.419L359.841,163.951z"/>
	<polygon style="fill:#1D1D1B;" points="489.997,354.444 306.574,396.59 0,338.379 0,353.44 269.608,405.092 0,466.903 0,482.968 
		489.997,370.51 	"/>
	<g id="XMLID_152_">
		<polygon style="fill:#7D4E24;" points="489.997,489.997 489.997,370.651 204.974,489.997 		"/>
	</g>
	<g id="XMLID_153_">
		<rect x="68.906" y="260.311" style="fill:#1D1D1B;" width="153.124" height="15.312"/>
	</g>
	<g id="XMLID_154_">
		<rect x="229.686" y="283.279" style="fill:#1D1D1B;" width="38.281" height="15.312"/>
	</g>
	<g id="XMLID_155_">
		<rect x="176.093" y="306.248" style="fill:#1D1D1B;" width="22.969" height="15.312"/>
	</g>
	<g id="XMLID_156_">
		<rect x="313.904" y="329.217" style="fill:#1D1D1B;" width="91.874" height="15.312"/>
	</g>
	<g id="XMLID_157_">
		<rect x="405.779" y="306.248" style="fill:#1D1D1B;" width="30.625" height="15.312"/>
	</g>
</g>
</svg>