<?xml version="1.0" encoding="iso-8859-1"?>
<!-- Uploaded to: SVG Repo, www.svgrepo.com, Generator: SVG Repo Mixer Tools -->
<svg height="800px" width="800px" version="1.1" id="Layer_1" xmlns="http://www.w3.org/2000/svg" xmlns:xlink="http://www.w3.org/1999/xlink" 
	 viewBox="0 0 512 512" xml:space="preserve">
<circle style="fill:#FFF0CF;" cx="256" cy="256" r="256"/>
<path style="fill:#FF6E36;" d="M256,180.044c-31.024,0-56.264-25.24-56.264-56.264S224.976,67.516,256,67.516
	s56.264,25.24,56.264,56.264S287.024,180.044,256,180.044z"/>
<path style="fill:#FFC240;" d="M256,285.82c-55.133-31.544-110.271-63.082-219.69-63.567c-1.676,11.003-2.552,22.277-2.552,33.747
	c0,33.215,7.286,64.728,20.348,93.028l57.752,28.439l178.678-72.432C278.708,298.811,267.354,292.316,256,285.82z"/>
<path style="fill:#FF984C;" d="M475.69,222.253C366.271,222.737,311.133,254.275,256,285.82
	c-52.057,29.785-104.124,59.564-201.881,63.202C89.325,425.3,166.474,478.242,256,478.242c122.74,0,222.242-99.501,222.242-222.242
	C478.242,244.53,477.365,233.256,475.69,222.253z"/>
<circle style="fill:#FFC240;" cx="343.715" cy="359.897" r="8.44"/>
<circle style="fill:#FF984C;" cx="118.66" cy="281.127" r="8.44"/>
<circle style="fill:#FFC240;" cx="386.476" cy="303.633" r="8.44"/>
<g>
	<path style="fill:#FF984C;" d="M272.869,220.634c-3.971,0-7.51-2.817-8.28-6.862c-0.872-4.579,2.132-8.998,6.71-9.87
		c32.567-6.206,58.617-32.256,64.823-64.823c0.871-4.579,5.292-7.581,9.87-6.711c4.578,0.872,7.582,5.292,6.71,9.87
		c-7.49,39.309-38.935,70.753-78.243,78.244C273.926,220.584,273.393,220.634,272.869,220.634z"/>
	<path style="fill:#FF984C;" d="M239.13,220.634c-0.524,0-1.056-0.048-1.589-0.151c-46.357-8.833-80.003-49.503-80.003-96.703
		c0-54.292,44.169-98.462,98.462-98.462c47.199,0,87.868,33.646,96.703,80.003c0.872,4.579-2.132,8.998-6.71,9.87
		c-4.581,0.872-8.999-2.132-9.87-6.711C328.802,70.074,295.107,42.198,256,42.198c-44.985,0-81.582,36.597-81.582,81.582
		c0,39.107,27.875,72.803,66.283,80.122c4.579,0.872,7.583,5.292,6.711,9.87C246.641,217.817,243.102,220.634,239.13,220.634z"/>
</g>
</svg>