<?xml version="1.0" encoding="iso-8859-1"?>
<!-- Uploaded to: SVG Repo, www.svgrepo.com, Generator: SVG Repo Mixer Tools -->
<svg fill="#000000" height="800px" width="800px" version="1.1" id="Layer_1" xmlns="http://www.w3.org/2000/svg" xmlns:xlink="http://www.w3.org/1999/xlink" 
	 viewBox="0 0 512 512" xml:space="preserve">
<g>
	<g>
		<path d="M506.379,294.746c-3.838-1.715-71.092-31.354-155.231-47.47c85.447-15.718,151.819-47.342,155.49-49.113
			c4.713-2.268,6.694-7.935,4.416-12.658c-2.259-4.703-7.907-6.676-12.657-4.416c-1.141,0.549-114.375,54.44-232.655,55.91
			c4.028-114.863,55.15-222.289,55.683-223.4c2.278-4.722,0.296-10.389-4.417-12.657c-4.731-2.259-10.389-0.296-12.658,4.417
			C302.611,8.972,271.954,73.321,256,156.812C240.046,73.321,209.391,8.972,207.648,5.358c-2.259-4.713-7.907-6.676-12.657-4.416
			c-4.713,2.268-6.694,7.935-4.417,12.657c0.535,1.111,51.586,108.389,55.676,223.162c-115.595-4.13-231.699-55.259-232.907-55.792
			c-4.806-2.158-10.38,0.018-12.519,4.796c-2.13,4.787,0.018,10.389,4.796,12.519c3.838,1.713,71.092,31.354,155.233,47.47
			C75.406,261.471,9.035,293.096,5.362,294.867c-4.713,2.268-6.694,7.935-4.417,12.657c2.268,4.722,7.917,6.704,12.657,4.417
			c1.143-0.549,114.52-54.507,232.881-55.912c-1.456,118.715-55.481,241.381-56.03,242.624c-2.13,4.787,0.018,10.389,4.796,12.519
			c1.259,0.565,2.565,0.824,3.861,0.824c3.62,0,7.083-2.093,8.657-5.62c1.741-3.9,32.308-73.25,48.232-159.266
			c15.926,86.016,46.491,155.365,48.231,159.266c1.574,3.528,5.037,5.62,8.667,5.62c1.287,0,2.602-0.259,3.852-0.824
			c4.778-2.13,6.935-7.732,4.796-12.519c-0.546-1.241-54.504-123.627-56.028-242.391c115.673,4.069,231.93,55.266,233.138,55.799
			c1.259,0.565,2.565,0.824,3.852,0.824c3.63,0,7.093-2.093,8.667-5.62C513.305,302.478,511.157,296.876,506.379,294.746z"/>
	</g>
</g>
</svg>