<?xml version="1.0" encoding="iso-8859-1"?>
<!-- Uploaded to: SVG Repo, www.svgrepo.com, Generator: SVG Repo Mixer Tools -->
<svg height="800px" width="800px" version="1.1" id="Layer_1" xmlns="http://www.w3.org/2000/svg" xmlns:xlink="http://www.w3.org/1999/xlink" 
	 viewBox="0 0 506.68 506.68" xml:space="preserve">
<g transform="translate(0 -1004.36)" shape-rendering="auto" image-rendering="auto" color-rendering="auto" color-interpolation="sRGB">
	<path style="fill:#3B322E;" d="M252.73,1004.521c-1.212,0.09-2.387,0.454-3.437,1.066c-0.223,0.128-0.441,0.267-0.651,0.416
		c-0.365,0.262-0.708,0.555-1.024,0.874c-0.121,0.12-0.239,0.245-0.352,0.373c-0.036,0.035-0.071,0.071-0.107,0.107
		c-0.339,0.393-0.639,0.819-0.896,1.27c-0.336,0.596-0.594,1.233-0.768,1.895l-44,124.605l-115.459-55.23
		c-0.591-0.277-1.213-0.482-1.854-0.608c-0.663-0.143-1.342-0.2-2.02-0.171c-0.117-0.003-0.235-0.003-0.352,0
		c-0.537,0.049-1.068,0.153-1.584,0.309c-0.764,0.239-1.487,0.592-2.146,1.046c-0.218,0.15-0.428,0.31-0.629,0.48
		c-0.166,0.139-0.326,0.285-0.48,0.438c-0.058,0.063-0.115,0.127-0.171,0.192c-0.153,0.161-0.299,0.328-0.437,0.501
		c-0.139,0.176-0.271,0.357-0.395,0.544c-0.066,0.094-0.13,0.191-0.192,0.288c-0.036,0.057-0.072,0.113-0.107,0.171
		c-0.067,0.116-0.131,0.233-0.192,0.352c-0.105,0.206-0.201,0.415-0.288,0.63c0,0.036,0,0.071,0,0.107
		c-0.046,0.123-0.088,0.247-0.128,0.373c-0.084,0.253-0.155,0.508-0.213,0.768c-0.051,0.208-0.094,0.418-0.128,0.63
		c-0.002,0.096-0.002,0.192,0,0.288c-0.009,0.221-0.009,0.441,0,0.661c-0.014,0.27-0.014,0.54,0,0.811
		c0.022,0.264,0.058,0.528,0.107,0.789c0.095,0.52,0.242,1.029,0.437,1.521c0.062,0.162,0.13,0.322,0.203,0.48
		c0.087,0.206,0.184,0.409,0.288,0.608l54.896,114.874L5.338,1250.186c-0.104,0.04-0.207,0.083-0.309,0.128
		c-0.711,0.285-1.377,0.671-1.979,1.146c-0.05,0.042-0.1,0.085-0.149,0.128c-3.392,2.832-3.845,7.878-1.013,11.27
		c0.36,0.431,0.763,0.822,1.205,1.168c0.042,0.036,0.085,0.072,0.128,0.107c0.17,0.124,0.344,0.241,0.523,0.352
		c0.056,0.036,0.113,0.072,0.171,0.107c0.454,0.282,0.936,0.518,1.437,0.704l125.313,44.229l-55.209,115.396
		c-1.903,3.988-0.213,8.763,3.775,10.667c2.18,1.04,4.712,1.04,6.892,0l115.438-55.208l44.25,125.375
		c0.034,0.076,0.07,0.15,0.107,0.224c0.041,0.096,0.083,0.193,0.128,0.288c0.054,0.119,0.111,0.236,0.171,0.352
		c0.041,0.082,0.084,0.164,0.128,0.245c2.112,3.882,6.97,5.316,10.852,3.204c0.274-0.15,0.539-0.315,0.794-0.495
		c0.112-0.078,0.223-0.16,0.331-0.245c0.098-0.079,0.194-0.161,0.288-0.245c1.026-0.893,1.808-2.034,2.271-3.313l44.228-125.333
		l114.938,54.958c0.036,0,0.071,0,0.107,0l0.416,0.191c0.481,0.23,0.983,0.413,1.5,0.544c0.26,0.063,0.524,0.113,0.789,0.15
		c2.978,0.436,5.949-0.836,7.689-3.292c0.309-0.438,0.574-0.905,0.789-1.396c0.206-0.47,0.367-0.958,0.48-1.458
		c0-0.035,0-0.072,0-0.107c0.054-0.24,0.096-0.482,0.128-0.725c0.054-0.534,0.054-1.07,0-1.604
		c-0.027-0.211-0.063-0.421-0.107-0.629c0.001-0.057,0.001-0.113,0-0.171c-0.034-0.096-0.069-0.193-0.107-0.288
		c-0.037-0.168-0.08-0.336-0.128-0.501c0-0.035,0-0.072,0-0.107c-0.057-0.184-0.122-0.365-0.192-0.544c0-0.035,0-0.072,0-0.107
		c-0.034-0.082-0.07-0.164-0.107-0.245c-0.035-0.064-0.07-0.128-0.107-0.191l-55.167-115.333l125.292-44.313
		c4.165-1.475,6.346-6.048,4.87-10.214c-0.806-2.275-2.595-4.064-4.87-4.87l-125.27-44.229l55.146-115.479
		c1.899-3.99,0.204-8.764-3.786-10.663c-1.031-0.491-2.156-0.755-3.298-0.775l0,0c-1.236-0.031-2.462,0.225-3.583,0.747
		l-115.417,55.188l-44.188-125.27c-1.098-3.111-3.994-5.229-7.292-5.333l0,0c-0.263-0.013-0.526-0.013-0.789,0L252.73,1004.521z"/>
	<path style="fill:#F39C12;" d="M261.23,1059.125l48.437,137.396c0.75,2.59,2.815,4.112,4.944,4.842l137.313,48.459H261.278v-190.73
		L261.23,1059.125z"/>
	<path style="fill:#F1C40F;" d="M245.23,1059.333v190.521H54.585l89.187-31.5c0.082-0.034,0.164-0.07,0.245-0.107l0.235-0.107
		l47.292-16.708c0.111-0.033,0.221-0.069,0.331-0.107c0.057-0.035,0.114-0.07,0.171-0.107c0.155-0.066,0.308-0.137,0.459-0.214
		c0.075-0.034,0.15-0.07,0.224-0.107c0.2-0.095,0.395-0.198,0.587-0.309c0.228-0.135,0.448-0.281,0.661-0.438
		c0.21-0.15,0.413-0.31,0.608-0.48c0.19-0.179,0.372-0.368,0.544-0.565c0.099-0.107,0.195-0.218,0.288-0.331
		c0.051-0.06,0.1-0.12,0.149-0.182c0.043-0.056,0.086-0.113,0.128-0.171c0.058-0.077,0.115-0.155,0.171-0.234
		c0-0.036,0-0.071,0-0.107c0.135-0.211,0.259-0.428,0.373-0.65c0.068-0.13,0.132-0.261,0.192-0.395
		c0.044-0.088,0.087-0.177,0.128-0.267c0-0.036,0-0.071,0-0.107c0-0.036,0-0.071,0-0.107c0.036-0.057,0.072-0.113,0.107-0.171
		l16.812-47.604l31.646-89.584L245.23,1059.333z"/>
	<path style="fill:#F39C12;" d="M121.189,1114.521l74.917,35.833l-10.188,28.874L121.189,1114.521L121.189,1114.521z"/>
	<path style="fill:#F1C40F;" d="M385.23,1114.541l-64.667,64.646l-10.188-28.854L385.23,1114.541z"/>
	<path style="fill:#F39C12;" d="M396.585,1125.813l-35.771,74.896l-28.938-10.209L396.585,1125.813z"/>
	<path style="fill:#F1C40F;" d="M109.96,1125.896l64.645,64.645l-28.896,10.188L109.96,1125.896L109.96,1125.896z"/>
	<path style="fill:#F39C12;" d="M54.585,1265.854H245.23v190.625l-31.5-89.23c0-0.043,0-0.085,0-0.128
		c-0.033-0.119-0.068-0.236-0.107-0.352l-16.812-47.625c-0.145-0.388-0.32-0.764-0.523-1.125c-0.937-1.746-2.488-3.082-4.354-3.75
		l-47.604-16.811c-0.328-0.117-0.663-0.214-1.003-0.288l-88.708-31.313L54.585,1265.854z"/>
	<path style="fill:#F1C40F;" d="M261.23,1265.854h190.688l-89.104,31.521c-0.205,0.107-0.408,0.117-0.608,0.191l-46.416,16.438
		c-3.627,0.939-5.444,3.647-6.1,5.197l-13.729,38.896l-3.021,8.564v0.107l-31.626,89.625L261.23,1265.854z"/>
	<path style="fill:#F39C12;" d="M145.709,1314.979l28.896,10.188l-64.708,64.688l35.812-74.876V1314.979z"/>
	<g>
		<path style="fill:#F1C40F;" d="M360.773,1315.083l35.749,74.771l-64.583-64.583L360.773,1315.083L360.773,1315.083z"/>
		<path style="fill:#F1C40F;" d="M185.918,1336.479l10.166,28.833l-74.791,35.771L185.918,1336.479z"/>
	</g>
	<path style="fill:#F39C12;" d="M320.543,1336.5l64.645,64.646l-74.833-35.813l9.084-25.73l1.104-3.104V1336.5z"/>
	<path style="fill:#CE891A;" d="M261.272,1059.254v34.042l36.396,103.23c1.134,2.494,2.505,3.883,4.944,4.854l137.313,48.458h12
		l-137.313-48.459c-2.976-1.191-3.865-2.593-4.944-4.854L261.272,1059.254z"/>
	<path style="fill:#CDA918;" d="M245.127,1059.254l-11.917,33.729v156.918h12.02V1059.38l-0.107-0.128L245.127,1059.254z"/>
	<path style="fill:#CE891A;" d="M121.189,1114.567l11.084,11.083l51.834,24.792l-7.042,19.979l8.854,8.854l10.188-28.874
		L121.189,1114.567z"/>
	<path style="fill:#CDA918;" d="M385.23,1114.567l-22.958,10.979l-44.833,44.813l3.124,8.854L385.23,1114.567z"/>
	<path style="fill:#CE891A;" d="M396.585,1125.839l-22.938,22.938l-23.104,48.333l10.271,3.626L396.585,1125.839z"/>
	<g>
		<path style="fill:#CDA918;" d="M109.96,1125.945l11.021,23.063l41.625,41.624l-18.604,6.563l1.708,3.583l28.896-10.188
			L109.96,1125.945z"/>
		<path style="fill:#CDA918;" d="M261.314,1265.927v0.107h178.605c-29.89,10.548-59.863,21.224-89.712,31.714l-46.416,16.439
			c-3.503,1.023-5.118,2.672-6.111,5.186l-13.729,38.896c-7.512,21.438-15.086,42.865-22.646,64.293v33.938
			c15.919-45.033,33.416-94.81,48.375-137.191c0.033-0.107,0.069-0.203,0.107-0.31c0.041-0.107,0.083-0.203,0.128-0.31
			c0.034-0.107,0.07-0.15,0.107-0.224c0.084-0.16,0.173-0.31,0.267-0.458c1.143-2.016,3.104-3.438,5.375-3.897h0.128
			c45.387-16.082,90.72-32.077,136.128-48.139H261.313L261.314,1265.927z"/>
	</g>
	<g>
		<path style="fill:#CE891A;" d="M54.627,1265.927l0.171,0.107h178.437v156.564l12,34v-190.625H54.631L54.627,1265.927z"/>
		<path style="fill:#CE891A;" d="M145.709,1315.051l-1.749,3.667l18.645,6.583l-41.771,41.749l-10.938,22.876l64.708-64.688
			L145.709,1315.051z"/>
	</g>
	<g>
		<path style="fill:#CDA918;" d="M360.773,1315.157l-10.292,3.646l22.979,48.063l23.062,23.063L360.773,1315.157z"/>
		<path style="fill:#CDA918;" d="M185.918,1336.555l-8.896,8.896l7.062,20.021l-51.937,24.833l-10.854,10.854l74.791-35.771
			L185.918,1336.555z"/>
	</g>
	<path style="fill:#CE891A;" d="M320.543,1336.555l-1.104,3.104l-2.043,5.814l44.667,44.667l23.125,11.063L320.543,1336.555z"/>
</g>
</svg>