<?xml version="1.0" encoding="iso-8859-1"?>
<!-- Uploaded to: SVG Repo, www.svgrepo.com, Generator: SVG Repo Mixer Tools -->
<svg height="800px" width="800px" version="1.1" id="Layer_1" xmlns="http://www.w3.org/2000/svg" xmlns:xlink="http://www.w3.org/1999/xlink" 
	 viewBox="0 0 512 512" xml:space="preserve">
<polygon style="fill:#F9D026;" points="512,239.304 296.307,239.304 381.661,153.948 358.052,130.339 272.696,215.693 272.696,0 
	255.613,0 239.304,0 239.304,215.693 153.948,130.339 130.339,153.948 215.693,239.304 0,239.304 0,272.696 215.693,272.696 
	130.339,358.052 153.948,381.661 239.304,296.307 239.304,512 255.613,512 272.696,512 272.696,296.307 358.052,381.661 
	381.661,358.052 296.307,272.696 512,272.696 "/>
<polygon style="fill:#E7C224;" points="512,239.304 296.307,239.304 381.661,153.948 358.052,130.339 272.696,215.693 272.696,0 
	255.613,0 255.613,512 272.696,512 272.696,296.307 358.052,381.661 381.661,358.052 296.307,272.696 512,272.696 "/>
</svg>